<svg id="Слой_1" data-name="Слой 1" xmlns="http://www.w3.org/2000/svg" viewBox="0 0 450 450"><defs><style>.cls-1,.cls-3{fill:none;stroke-miterlimit:10;}.cls-1{stroke:#e9c1c5;}.cls-2{fill:#c52b2e;}.cls-3{stroke:#c52b2e;stroke-width:0.5px;}.cls-4,.cls-5{fill:#2f3a71;}.cls-5{font-size:9.89px;font-family:Roboto-Medium, Roboto;font-weight:500;}</style></defs><title>Logo</title><polyline class="cls-1" points="377.56 227.27 386.56 228.05 388.13 234.31 390.68 209.85 394.59 245.08 395.96 223.35 397.33 231.29 398.5 224.53 399.48 230.2 400.46 227.46 422.78 227.46"/><polyline class="cls-1" points="149.69 227.27 140.69 228.05 139.12 234.31 136.58 209.85 132.66 245.08 131.29 223.35 129.92 231.29 128.75 224.53 127.77 230.2 126.79 227.46 104.47 227.46"/><polygon class="cls-2" points="170.44 214.13 165.48 214.13 160.62 222.8 159.96 222.8 159.96 214.13 155.96 214.13 155.96 235.87 159.96 235.87 159.96 227.01 160.92 227.01 165.82 235.87 170.9 235.87 164.13 224.26 170.44 214.13"/><path class="cls-2" d="M184.44,214.13h-4l-6,21.39-.1.35h4.18l1.2-4.57h5.42l1.21,4.57h4.18l-6-21.56Zm-.29,13.3h-3.41l1.71-6.46Z"/><path class="cls-2" d="M207.68,216.06a6.53,6.53,0,0,0-5-1.93h-7v21.74h4v-7.69h3a6.56,6.56,0,0,0,5-1.92,8,8,0,0,0,0-10.2Zm-8,1.88h3a2.45,2.45,0,0,1,2.09.91,3.76,3.76,0,0,1,.71,2.35,3.52,3.52,0,0,1-.71,2.29,2.53,2.53,0,0,1-2.09.88h-3Z"/><path class="cls-2" d="M227.35,214.13H215.48l-.42,8.94a33.91,33.91,0,0,1-.78,7c-.37,1.36-1,2-1.78,2h-1.26v9h4v-5.22h10.23v5.22h4v-9h-2.11Zm-4,3.81v14.14h-5.9a16.88,16.88,0,0,0,1-3.55,38.21,38.21,0,0,0,.56-5.44l.24-5.15Z"/><polygon class="cls-2" points="238.4 227.77 238.4 214.13 234.42 214.13 234.42 235.87 238.31 235.87 245.2 222.22 245.2 235.87 249.2 235.87 249.2 214.13 245.29 214.13 238.4 227.77"/><path class="cls-2" d="M263.09,213.82a6.72,6.72,0,0,0-5.48,2.64,10.37,10.37,0,0,0-2.1,6.63v3.82a10.33,10.33,0,0,0,2.11,6.64,7.08,7.08,0,0,0,11,0,10.22,10.22,0,0,0,2.12-6.64v-3.82a10.22,10.22,0,0,0-2.13-6.63A6.83,6.83,0,0,0,263.09,213.82Zm-3.59,9.24a7.18,7.18,0,0,1,1-3.9,2.92,2.92,0,0,1,2.63-1.48,3,3,0,0,1,2.69,1.48,7.11,7.11,0,0,1,1,3.9v3.85a7.22,7.22,0,0,1-1,4,3.14,3.14,0,0,1-5.33,0,7.31,7.31,0,0,1-1-4Z"/><polygon class="cls-2" points="291.75 214.13 287.75 214.13 287.75 232.06 280.96 232.06 280.96 214.13 276.96 214.13 276.96 235.87 290.13 235.87 290.13 241.1 294.13 241.1 294.13 232.06 291.75 232.06 291.75 214.13"/><polygon class="cls-2" points="304.09 226.55 310.66 226.55 310.66 222.74 304.09 222.74 304.09 217.94 311.88 217.94 311.88 214.13 300.09 214.13 300.09 235.87 311.91 235.87 311.91 232.08 304.09 232.08 304.09 226.55"/><polygon class="cls-2" points="328.73 223.25 321.95 223.25 321.95 214.13 317.95 214.13 317.95 235.87 321.95 235.87 321.95 227.06 328.73 227.06 328.73 235.87 332.73 235.87 332.73 214.13 328.73 214.13 328.73 223.25"/><polygon class="cls-2" points="337.94 217.94 342.93 217.94 342.93 235.87 346.93 235.87 346.93 217.94 352 217.94 352 214.13 337.94 214.13 337.94 217.94"/><path class="cls-2" d="M369.46,216.06a6.5,6.5,0,0,0-5-1.93h-7v21.74h4v-7.69h3a6.53,6.53,0,0,0,5-1.92,8,8,0,0,0,0-10.2Zm-8,1.88h3a2.47,2.47,0,0,1,2.1.91,3.75,3.75,0,0,1,.7,2.35,3.57,3.57,0,0,1-.7,2.29,2.55,2.55,0,0,1-2.1.88h-3Z"/><path class="cls-3" d="M37.23,234.35H50.84l2.54-4.11,2.35,4.11h2.15l3.74-14.13L63.8,245.6l.74-7.53v-3.32l5.28-.2s.88-6,4.26-7.13c0,0,3.52,1.24,3.77,6.93l5.55.2"/><path class="cls-2" d="M81,206.05c-1.32-1.28-1.71-2.17-3.25-3.17-4-2.62-8.09-4-11.09-4.1-5.91-.14-11.48,1.85-14.1,7.49-.08.17-2-2.08-9.12-2.05-9.63.05-17.72,9.09-15.94,18.57a23.25,23.25,0,0,0,6.35,12.1c4.84,5,11.58,8.5,18.11,10.71-3.76-2.17-8.41-4.21-11.65-7.93l-.15-.11a8.76,8.76,0,0,1-2.31-3.19,5,5,0,0,1-2-4.43c-.08-5.06,2.48-8.65,6.73-11.06,5-2.8,10.26-2.14,14.59,1.6.33.28.68.55.94.76.71-2.36,1.09-4.75,2.1-6.84a11.3,11.3,0,0,1,19.32-2.2c1.37,1.74,3.17,3.28,3.87,5.15,5,10.73-3.49,24-3.49,24a43.41,43.41,0,0,0,6.88-17.25C87.83,216.66,86.55,211.45,81,206.05Z"/><path class="cls-4" d="M62.84,249.46c-13.35-3.79-19.62-8.84-23.4-12.57s-2.83-12.29,2.33-16.12c8.77-6.52,17.15,1.29,17.15,1.29.66-6.85,3.45-10.34,6.49-12.07A11.32,11.32,0,0,1,79,212.16c13.93,14.24-4.65,39.07-4.65,39.07s27-33.48,3.33-48.35c0,0-17.62-8-23.1,10.18,0,0-13.31-7.25-21.34,5.67C33.28,218.73,23.26,238,62.84,249.46Z"/><text class="cls-5" transform="translate(247.78 207.23)"><tspan xml:space="preserve">Линцензия МЗКР N    2028</tspan></text><text class="cls-5" transform="translate(318.71 248.55)">SINCE 2011</text></svg>