<svg width="21" height="19" viewBox="0 0 21 19" fill="none" xmlns="http://www.w3.org/2000/svg">
<path fill-rule="evenodd" clip-rule="evenodd" d="M0 9.5C0 4.25329 4.25329 0 9.5 0C14.7467 0 19 4.25329 19 9.5C19 14.7467 14.7467 19 9.5 19C4.25329 19 0 14.7467 0 9.5ZM13.2093 14.4165C14.0991 14.4165 14.8079 13.8437 15.2 12.4713L14.5366 12.2152C14.2048 13.1346 13.9182 13.3009 13.692 13.3009C13.4658 13.3009 13.345 13.1503 13.345 12.8488C13.345 12.7131 13.3754 12.5626 13.4204 12.3813L13.9031 10.6479C14.0238 10.2409 14.069 9.88052 14.069 9.54889C14.069 8.25198 13.2848 7.57661 12.3347 7.57661C11.445 7.57661 10.5401 8.38206 10.0877 9.2267L10.4194 7.71655H7.84062L7.47868 9.05572H8.68515L7.94228 12.0232C7.35877 13.3201 6.28707 13.3341 6.15261 13.304C5.93177 13.2542 5.79055 13.1718 5.79055 12.8849C5.79055 12.7192 5.82068 12.4843 5.8961 12.1976L7.02726 7.71655H4.16194L3.8 9.05572H4.99131L4.2222 12.1882C4.16194 12.4446 4.13169 12.712 4.13169 12.9378C4.13169 13.8278 4.61427 14.4151 5.63977 14.4151C6.49038 14.4151 7.17987 13.9032 7.67627 13.0876L7.37313 14.2906H9.06212L10.0274 10.4328C10.2686 9.45248 10.7361 8.95741 11.445 8.95741C12.003 8.95741 12.3498 9.30444 12.3498 9.87729C12.3498 10.0433 12.3347 10.2241 12.2744 10.4202L11.7767 12.1997C11.7013 12.4561 11.6712 12.7127 11.6712 12.9537C11.6712 13.7986 12.1687 14.4165 13.2093 14.4165ZM6.34855 4.75C5.79055 4.75 5.32312 5.1873 5.32312 5.76016C5.32312 6.33344 5.79055 6.7708 6.34855 6.7708C6.90662 6.7708 7.37405 6.33344 7.37405 5.76016C7.37405 5.1873 6.90662 4.75 6.34855 4.75Z" fill="#8A8B8E"/>
</svg>
