<svg width="19" height="19" viewBox="0 0 19 19" fill="none" xmlns="http://www.w3.org/2000/svg">
<path fill-rule="evenodd" clip-rule="evenodd" d="M9.5 0C4.25329 0 0 4.25329 0 9.5C0 14.7467 4.25329 19 9.5 19C14.7467 19 19 14.7467 19 9.5C19 4.25329 14.7467 0 9.5 0ZM3.95833 9.48427C3.95833 6.43726 6.44426 3.95833 9.49992 3.95833C12.5556 3.95833 15.0415 6.43726 15.0415 9.48427C15.0415 9.91594 15.0055 10.2654 14.9248 10.6161L14.9236 10.6219C14.9234 10.623 14.8834 10.7847 14.8612 10.8552C14.7243 11.292 14.4763 11.6558 14.1441 11.9073C13.822 12.1512 13.4225 12.2855 13.0194 12.2855C12.9696 12.2855 12.9194 12.2835 12.8703 12.2796C12.2978 12.2337 11.7945 11.9333 11.4858 11.4543C10.955 11.9866 10.2506 12.2795 9.49992 12.2795C7.95433 12.2795 6.69688 11.0256 6.69688 9.48427C6.69688 7.94303 7.95433 6.68916 9.49992 6.68916C11.0455 6.68916 12.303 7.94303 12.303 9.48427V10.3853C12.3053 10.911 12.6591 11.126 12.9613 11.1503C13.2621 11.1734 13.6622 10.9987 13.8017 10.4286C13.8704 10.116 13.9054 9.79818 13.9054 9.48427C13.9054 7.06194 11.9291 5.09126 9.49992 5.09126C7.07075 5.09126 5.09449 7.06194 5.09449 9.48427C5.09449 11.9066 7.07075 13.8773 9.49992 13.8773C10.3455 13.8773 11.1679 13.6365 11.8781 13.1809L11.8909 13.1727L12.6374 14.0382L12.6214 14.0492C11.6988 14.6779 10.6194 15.0103 9.49992 15.0103C6.44426 15.0103 3.95833 12.5313 3.95833 9.48427Z" fill="#8A8B8E"/>
<path fill-rule="evenodd" clip-rule="evenodd" d="M11.1668 9.48428C11.1668 10.4008 10.419 11.1465 9.49992 11.1465C8.58077 11.1465 7.83304 10.4008 7.83304 9.48428C7.83304 8.56775 8.58077 7.82212 9.49992 7.82212C10.419 7.82212 11.1668 8.56775 11.1668 9.48428Z" fill="#8A8B8E"/>
</svg>
