<svg width="19" height="19" viewBox="0 0 19 19" fill="none" xmlns="http://www.w3.org/2000/svg">
<path fill-rule="evenodd" clip-rule="evenodd" d="M0 9.5C0 4.25329 4.25329 0 9.5 0C14.7467 0 19 4.25329 19 9.5C19 14.7467 14.7467 19 9.5 19C4.25329 19 0 14.7467 0 9.5ZM9.49355 9.65252C10.8944 9.65252 12.0332 8.55315 12.0332 7.20163C12.0332 5.84967 10.8944 4.75 9.49355 4.75C8.09297 4.75 6.95391 5.84967 6.95391 7.20163C6.95391 8.55315 8.09297 9.65252 9.49355 9.65252ZM10.5276 11.6535C11.0445 11.5398 11.5431 11.3423 12.0023 11.0639C12.3498 10.8524 12.4545 10.409 12.2356 10.0736C12.0167 9.73736 11.5577 9.63615 11.2095 9.84766C10.1693 10.4791 8.82992 10.479 7.79024 9.84766C7.44211 9.63615 6.9829 9.73736 6.76454 10.0736C6.54557 10.4093 6.64996 10.8524 6.99748 11.0639C7.45669 11.342 7.95526 11.5398 8.47221 11.6535L7.05234 13.024C6.7621 13.3045 6.7621 13.7592 7.05264 14.0397C7.19807 14.1797 7.38831 14.2499 7.57856 14.2499C7.76912 14.2499 7.95967 14.1797 8.10509 14.0397L9.49974 12.6928L10.8956 14.0397C11.1858 14.3201 11.6568 14.3201 11.9473 14.0397C12.2381 13.7592 12.2381 13.3042 11.9473 13.024L10.5276 11.6535Z" fill="#8A8B8E"/>
<path fill-rule="evenodd" clip-rule="evenodd" d="M9.49355 6.18674C10.0734 6.18674 10.5451 6.64189 10.5451 7.20163C10.5451 7.76092 10.0734 8.21637 9.49355 8.21637C8.91414 8.21637 8.44201 7.76092 8.44201 7.20163C8.44201 6.64189 8.91414 6.18674 9.49355 6.18674Z" fill="#8A8B8E"/>
</svg>
