<svg width="19" height="19" viewBox="0 0 19 19" fill="none" xmlns="http://www.w3.org/2000/svg">
<path fill-rule="evenodd" clip-rule="evenodd" d="M19 9.5C19 14.7467 14.7467 19 9.5 19C4.25331 19 0 14.7467 0 9.5C0 4.25331 4.25331 0 9.5 0C14.7467 0 19 4.25331 19 9.5ZM6.36164 8.62976C5.40997 9.04527 4.43219 9.47221 3.53806 9.96471C3.07118 10.3066 3.69169 10.5484 4.27385 10.7752C4.3664 10.8112 4.45795 10.8469 4.54405 10.8825C4.61569 10.9046 4.68853 10.9278 4.76235 10.9513C5.40981 11.1576 6.13174 11.3876 6.76032 11.0416C7.79289 10.4484 8.76731 9.76267 9.74102 9.07745C10.06 8.85293 10.3789 8.62849 10.6998 8.40738C10.7149 8.39776 10.7318 8.38676 10.7504 8.37476C11.0237 8.19755 11.6385 7.79906 11.411 8.34816C10.8733 8.93621 10.2974 9.45674 9.7183 9.98015C9.32801 10.3329 8.93629 10.6869 8.55392 11.0637C8.22091 11.3343 7.87506 11.8785 8.24798 12.2574C9.1069 12.8587 9.97924 13.4454 10.8511 14.0318C11.1348 14.2226 11.4184 14.4134 11.7015 14.6046C12.1814 14.9877 12.9313 14.6778 13.0368 14.0792C13.0837 13.8038 13.1308 13.5285 13.1779 13.2531C13.4382 11.7312 13.6986 10.2088 13.9286 8.68201C13.9599 8.44249 13.9953 8.20301 14.0307 7.96341C14.1167 7.38269 14.2027 6.80125 14.2296 6.21739C14.1603 5.63473 13.4539 5.76286 13.0607 5.89388C11.0399 6.66283 9.03929 7.48877 7.04659 8.32928C6.82084 8.42927 6.59201 8.52918 6.36164 8.62976Z" fill="#8A8B8E"/>
</svg>
