<svg width="19" height="19" viewBox="0 0 19 19" fill="none" xmlns="http://www.w3.org/2000/svg">
<path fill-rule="evenodd" clip-rule="evenodd" d="M0 9.5C0 4.25329 4.25329 0 9.5 0C14.7467 0 19 4.25329 19 9.5C19 14.7467 14.7467 19 9.5 19C4.25329 19 0 14.7467 0 9.5ZM9.99695 12.6176C9.99695 12.6176 10.1798 12.5976 10.2735 12.4989C10.3592 12.4084 10.3563 12.2376 10.3563 12.2376C10.3563 12.2376 10.3449 11.4402 10.722 11.3225C11.0938 11.2067 11.571 12.0936 12.0776 12.4346C12.4602 12.6925 12.7506 12.636 12.7506 12.636L14.1042 12.6176C14.1042 12.6176 14.8119 12.5747 14.4764 12.0284C14.4486 11.9836 14.2806 11.6241 13.4703 10.8856C12.6213 10.1126 12.7353 10.2376 13.7572 8.90021C14.3797 8.0858 14.6285 7.5886 14.5507 7.376C14.4769 7.17264 14.0189 7.22664 14.0189 7.22664L12.4954 7.23589C12.4954 7.23589 12.3824 7.22081 12.2986 7.26994C12.2168 7.31811 12.1638 7.43049 12.1638 7.43049C12.1638 7.43049 11.9229 8.06051 11.6013 8.59663C10.9228 9.72726 10.6517 9.7871 10.5406 9.71704C10.2824 9.55309 10.3469 9.05929 10.3469 8.70852C10.3469 7.61244 10.5164 7.15561 10.0173 7.0374C9.85173 6.99799 9.72981 6.9722 9.30605 6.96783C8.76235 6.96247 8.30241 6.96977 8.04172 7.0948C7.86825 7.17799 7.73443 7.36384 7.81621 7.37454C7.91682 7.38768 8.14481 7.43487 8.26574 7.59638C8.42186 7.80509 8.41641 8.27311 8.41641 8.27311C8.41641 8.27311 8.50612 9.56331 8.20676 9.72336C8.00157 9.83331 7.72006 9.60904 7.11491 8.58301C6.80514 8.05759 6.57121 7.47671 6.57121 7.47671C6.57121 7.47671 6.52611 7.36822 6.44532 7.30984C6.34768 7.23929 6.21139 7.2174 6.21139 7.2174L4.76368 7.22664C4.76368 7.22664 4.5461 7.23248 4.4663 7.3254C4.39543 7.40762 4.46085 7.57838 4.46085 7.57838C4.46085 7.57838 5.59434 10.1816 6.878 11.4937C8.0551 12.6964 9.3913 12.6176 9.3913 12.6176H9.99695Z" fill="#8A8B8E"/>
</svg>
