<svg width="19" height="19" viewBox="0 0 19 19" fill="none" xmlns="http://www.w3.org/2000/svg">
<path fill-rule="evenodd" clip-rule="evenodd" d="M9.5 19C4.25329 19 0 14.7467 0 9.5C0 4.25329 4.25329 0 9.5 0C14.7467 0 19 4.25329 19 9.5C19 14.7467 14.7467 19 9.5 19ZM9.81313 14.7854C12.9277 14.7841 15.4608 12.2504 15.4621 9.13643C15.4627 7.62705 14.8757 6.20778 13.8091 5.14006C12.7426 4.07228 11.3243 3.48399 9.81308 3.48333C6.69941 3.48333 4.16527 6.01734 4.16403 9.13197C4.1636 10.1276 4.42373 11.0994 4.91808 11.9561L4.11667 14.8833L7.11128 14.0978C7.93638 14.5478 8.86536 14.785 9.8108 14.7854H9.81313Z" fill="#8A8B8E"/>
<path fill-rule="evenodd" clip-rule="evenodd" d="M7.25003 13.0752L5.47298 13.5413L5.9473 11.8087L5.83567 11.6311C5.36567 10.8835 5.11743 10.0195 5.1178 9.13233C5.11883 6.5436 7.22511 4.4375 9.81498 4.4375C11.0691 4.43793 12.2479 4.92693 13.1344 5.81443C14.0209 6.70192 14.5088 7.88156 14.5083 9.13614C14.5073 11.7251 12.401 13.8314 9.81313 13.8314H9.81123C8.96871 13.8311 8.14236 13.6047 7.42148 13.1769L7.25003 13.0752ZM12.6591 10.4798C12.6238 10.4209 12.5297 10.3856 12.3886 10.3149C12.2474 10.2443 11.5534 9.90282 11.424 9.85567C11.2947 9.80859 11.2005 9.78506 11.1065 9.92632C11.0124 10.0676 10.7419 10.3856 10.6595 10.4798C10.5772 10.5739 10.4949 10.5858 10.3538 10.5151C10.2126 10.4445 9.7578 10.2954 9.21866 9.81452C8.79905 9.44023 8.51577 8.97803 8.43343 8.83672C8.3511 8.69541 8.42466 8.61904 8.49532 8.54866C8.55882 8.48539 8.63648 8.38376 8.70705 8.30136C8.77762 8.21897 8.80114 8.16005 8.84819 8.06591C8.89524 7.97167 8.87172 7.88927 8.83642 7.81862C8.80114 7.74796 8.51886 7.05319 8.40124 6.77057C8.28665 6.49534 8.17029 6.53262 8.08366 6.52827C8.00142 6.52414 7.90722 6.52327 7.81313 6.52327C7.71904 6.52327 7.56611 6.5586 7.43674 6.69991C7.30736 6.84122 6.94272 7.18271 6.94272 7.87743C6.94272 8.57219 7.44849 9.24337 7.51907 9.33756C7.58964 9.43181 8.51437 10.8575 9.93031 11.4689C10.2671 11.6143 10.53 11.7011 10.735 11.7662C11.0731 11.8736 11.3808 11.8585 11.624 11.8221C11.8952 11.7816 12.4591 11.4807 12.5768 11.151C12.6943 10.8212 12.6943 10.5386 12.6591 10.4798Z" fill="#8A8B8E"/>
</svg>
